<?xml version="1.0" standalone="no"?>
<!DOCTYPE svg PUBLIC "-//W3C//DTD SVG 20010904//EN"
 "http://www.w3.org/TR/2001/REC-SVG-20010904/DTD/svg10.dtd">
<svg version="1.0" xmlns="http://www.w3.org/2000/svg"
 width="500.000000pt" height="500.000000pt" viewBox="0 0 500.000000 500.000000"
 preserveAspectRatio="xMidYMid meet">
<metadata>
Created by potrace 1.14, written by Peter Selinger 2001-2017
</metadata>
<g transform="translate(0.000000,500.000000) scale(0.100000,-0.100000)"
fill="#000000" stroke="none">
<path d="M592 4973 c3 -23 -1 -29 -22 -31 -30 -4 -141 -42 -156 -54 -22 -16
-22 -47 -2 -74 17 -21 27 -25 51 -20 16 3 35 2 41 -3 6 -5 32 -11 56 -13 l45
-3 -52 -32 c-47 -29 -74 -66 -59 -80 3 -4 -2 -15 -11 -25 -9 -11 -18 -24 -19
-31 -11 -85 -12 -124 -4 -136 5 -9 5 -22 -1 -33 -6 -12 -5 -28 5 -51 8 -21 10
-40 5 -48 -37 -58 43 -128 90 -78 11 13 21 30 21 40 0 9 13 31 29 48 26 28 31
29 60 18 23 -8 34 -21 41 -47 9 -33 8 -37 -30 -72 -28 -27 -40 -46 -40 -65 0
-54 31 -70 93 -48 57 19 69 1 25 -39 -97 -86 -108 -98 -108 -120 0 -26 22 -48
50 -53 9 -1 37 14 61 34 24 20 51 43 60 50 15 12 20 9 42 -32 l26 -46 -29 -25
c-19 -18 -27 -33 -25 -50 4 -39 21 -49 78 -47 47 1 50 0 32 -13 -11 -7 -25
-18 -32 -24 -7 -5 -16 -10 -22 -10 -13 0 -71 -68 -71 -84 0 -42 66 -72 112
-52 16 7 17 6 4 -19 -43 -83 31 -168 126 -144 24 7 26 5 19 -19 -17 -58 13
-99 56 -79 13 6 23 14 23 18 0 12 60 79 71 79 4 0 13 -9 19 -19 8 -17 2 -27
-41 -68 -36 -35 -48 -53 -44 -66 4 -9 10 -17 14 -17 4 0 33 22 66 50 80 67 92
46 19 -33 -30 -32 -54 -64 -54 -72 0 -8 12 -20 28 -28 26 -13 29 -12 84 40 61
57 66 59 92 40 14 -10 15 -17 7 -40 -6 -16 -11 -36 -11 -46 0 -26 37 -60 60
-56 16 3 22 -2 27 -26 3 -16 6 -29 7 -29 1 0 15 -4 32 -9 23 -6 40 -4 67 9
l37 19 -6 -48 c-5 -37 -3 -50 11 -61 23 -20 54 -20 68 0 26 35 34 29 18 -16
-14 -39 -14 -46 -1 -54 10 -6 20 -4 30 5 13 12 15 10 15 -18 0 -29 3 -31 38
-33 34 -3 39 0 54 32 9 18 20 34 25 34 5 0 -2 -17 -15 -37 -13 -21 -26 -46
-30 -56 -7 -19 17 -77 32 -77 5 0 16 -3 24 -6 9 -3 39 17 76 52 57 53 64 56
87 45 14 -6 24 -17 21 -24 -3 -7 1 -27 8 -45 17 -40 66 -56 108 -35 l27 14 0
-38 c1 -64 38 -90 78 -53 12 12 22 30 22 41 0 11 6 22 13 24 12 5 118 -26 119
-35 0 -3 -3 -28 -7 -57 -8 -65 -1 -89 33 -107 23 -12 32 -12 60 -1 25 11 32
11 32 2 0 -7 13 -20 29 -30 38 -23 68 -10 137 56 l51 49 11 -30 c21 -60 76
-64 122 -10 l24 30 11 -33 c16 -46 44 -63 73 -43 16 11 22 25 22 52 0 35 1 37
32 35 18 -1 48 -2 66 -2 l33 -1 -5 -67 c-7 -112 36 -173 71 -103 7 14 18 29
26 35 7 5 21 21 30 35 13 19 17 20 17 7 0 -22 44 -50 68 -43 24 8 56 42 76 81
14 27 16 28 16 7 0 -14 11 -29 31 -41 38 -23 70 -11 96 37 18 32 43 43 43 19
0 -19 43 -57 63 -57 10 0 19 -11 23 -27 3 -16 7 -34 10 -40 2 -7 -4 -13 -12
-13 -9 0 -14 -7 -12 -16 4 -23 40 -45 56 -35 15 9 16 26 7 98 -6 42 -4 54 8
58 8 4 23 26 33 51 10 24 21 44 24 44 17 -1 59 -49 62 -70 2 -14 9 -34 15 -45
9 -16 13 -17 27 -6 9 7 16 20 16 28 0 8 4 12 9 9 15 -9 59 33 72 68 l12 34 32
-34 c41 -43 85 -46 110 -8 22 34 25 52 15 102 -4 23 -4 42 1 42 5 0 26 -24 48
-54 39 -52 70 -74 90 -62 5 4 12 -2 15 -11 9 -28 62 -83 79 -83 27 0 29 18 7
62 -21 42 -21 42 -1 18 11 -14 21 -28 21 -32 0 -14 30 -8 30 6 0 16 -46 105
-67 129 -10 10 -12 17 -5 17 7 0 12 -4 12 -10 0 -5 9 -10 20 -10 21 0 29 33
11 44 -9 6 -51 90 -51 103 0 5 18 -18 41 -50 39 -55 63 -70 72 -44 2 6 -7 32
-20 56 -34 61 -22 62 22 1 27 -36 42 -49 54 -45 10 3 34 -2 55 -10 35 -15 37
-15 61 9 16 16 23 32 20 48 -3 12 -8 39 -11 58 -4 19 -11 43 -16 53 -19 37 17
15 77 -48 91 -95 128 -85 82 22 -14 32 -28 77 -30 100 -5 41 -4 42 20 32 13
-5 39 -20 57 -34 18 -14 38 -25 44 -25 23 0 21 20 -4 43 -20 19 -24 29 -17 42
6 10 7 35 2 59 -8 45 -5 56 13 38 38 -38 38 -45 38 893 l0 905 -2205 0 -2206
0 3 -27z m502 -1390 c-48 -20 -62 -15 -29 11 23 19 33 22 44 13 11 -9 8 -14
-15 -24z m3347 -888 l10 -20 -16 20 c-9 11 -21 29 -26 40 l-10 20 16 -20 c9
-11 21 -29 26 -40z"/>
<path d="M1349 3149 c-11 -11 -25 -33 -30 -49 -6 -16 -22 -33 -38 -40 -15 -6
-43 -25 -61 -41 l-33 -31 8 49 c13 86 12 98 -12 101 -35 5 -60 -57 -69 -168
-4 -44 -14 -80 -31 -110 -78 -136 -118 -215 -163 -321 -45 -103 -115 -295
-125 -340 -2 -9 -13 -47 -24 -85 -41 -140 -118 -488 -135 -614 -4 -25 -9 -56
-11 -70 -2 -14 -7 -49 -10 -79 -4 -30 -9 -63 -11 -75 -2 -11 -6 -57 -10 -101
-3 -44 -9 -109 -13 -145 -12 -95 -14 -184 -15 -490 0 -213 7 -517 13 -538 1
-1 731 -1 1623 0 l1621 3 45 115 c24 63 48 124 53 135 5 11 16 43 24 70 9 28
19 57 22 65 4 8 7 17 8 20 0 3 34 106 74 230 75 232 86 265 120 385 54 190 71
252 75 275 2 14 9 46 15 73 6 26 14 64 17 85 3 20 8 40 11 45 5 8 5 10 27 147
31 199 36 416 12 565 -1 11 5 38 15 59 21 47 10 81 -22 73 -28 -8 -41 48 -20
88 21 40 22 67 3 81 -20 15 -39 8 -47 -17 -6 -18 -9 -16 -28 13 -13 19 -39 39
-62 47 -22 9 -47 24 -56 35 -18 22 -48 16 -56 -12 -2 -9 -31 -32 -64 -49 -54
-30 -59 -31 -59 -13 0 23 -32 42 -55 33 -14 -5 -16 -15 -12 -52 l5 -46 -81
-77 c-45 -43 -84 -78 -87 -78 -3 0 -21 17 -40 37 -66 69 -156 96 -259 78 -40
-7 -214 -77 -236 -95 -6 -5 -27 4 -49 21 -22 16 -48 29 -58 29 -9 0 -32 9 -50
20 -42 26 -176 69 -248 80 -30 5 -82 14 -114 19 -134 23 -341 32 -447 18 -56
-7 -57 -7 -64 21 -25 103 -114 201 -198 218 -79 15 -112 18 -188 17 -67 -1
-96 -6 -128 -22 -50 -26 -53 -15 -6 26 39 35 42 45 19 64 -13 10 -19 10 -36 0
-25 -15 -31 -10 -57 51 -19 45 -19 47 -1 63 38 35 44 100 8 100 -7 0 -23 -12
-36 -27 l-23 -27 -39 39 c-22 22 -47 40 -56 40 -9 0 -14 3 -12 8 2 4 10 19 17
34 26 51 -9 78 -50 37z"/>
</g>
</svg>
